<svg width="97" height="97" viewBox="0 0 97 97" fill="none" xmlns="http://www.w3.org/2000/svg">
<rect width="97" height="97" rx="12" fill="white"/>
<path d="M80.2849 48.5C80.2849 47.5278 80.2409 46.5659 80.1555 45.6159C75.9837 41.8409 70.4585 39.5465 64.3924 39.5465C56.327 39.5465 51.887 42.9017 45.8323 48.4353C46.6566 52.4551 48.9254 57.6312 52.9772 61.7759C57.286 66.1835 63.6745 69.5026 72.8379 68.9431C77.4848 63.4166 80.2849 56.2856 80.2849 48.5ZM40.2027 53.3033C37.3018 55.5462 34.094 57.6013 30.7216 59.1305C27.2546 60.7026 23.4832 61.7735 19.6364 61.8284C24.6765 72.7249 35.7053 80.2849 48.5 80.2849C54.773 80.2849 60.6211 78.467 65.5475 75.3303C58.1636 74.2142 52.4118 70.8041 48.1752 66.4704C44.2488 62.454 41.6557 57.6841 40.2027 53.3033ZM65.5116 46.9331C67.366 46.9331 68.8692 48.4364 68.8692 50.2907V51.186C68.8692 53.0404 67.366 54.5436 65.5116 54.5436H64.6163C62.762 54.5436 61.2587 53.0404 61.2587 51.186V50.2907C61.2587 48.4364 62.762 46.9331 64.6163 46.9331H65.5116ZM16.7151 48.5C16.7151 50.7208 16.9431 52.8884 17.3766 54.9808C20.6615 55.4427 24.2442 54.6945 27.9485 53.0148C32.2421 51.0678 36.4149 47.9929 39.9527 44.7206C46.7311 38.4506 52.9218 32.8314 64.3924 32.8314C69.1645 32.8314 73.6797 33.9391 77.6933 35.9096C72.8169 24.6179 61.5815 16.7151 48.5 16.7151C30.9457 16.7151 16.7151 30.9457 16.7151 48.5ZM87 48.5C87 69.763 69.763 87 48.5 87C27.237 87 10 69.763 10 48.5C10 27.237 27.237 10 48.5 10C69.763 10 87 27.237 87 48.5Z" fill="#1F2937"/>
</svg>
